<?xml version="1.0" encoding="UTF-8" standalone="no"?>
<!DOCTYPE svg PUBLIC "-//W3C//DTD SVG 1.1//EN" "http://www.w3.org/Graphics/SVG/1.1/DTD/svg11.dtd">
<svg width="100%" height="100%" viewBox="0 0 1434 1024" version="1.1" xmlns="http://www.w3.org/2000/svg" xmlns:xlink="http://www.w3.org/1999/xlink" xml:space="preserve" xmlns:serif="http://www.serif.com/" style="fill-rule:evenodd;clip-rule:evenodd;stroke-linejoin:round;stroke-miterlimit:2;">
    <g transform="matrix(1,0,0,1,204.8,0)">
        <g transform="matrix(1.92654,1.92654,-1.03328,1.03328,124.041,-951.157)">
            <path d="M491.289,256.34L469.56,256.34C469.56,256.34 470.938,853.774 471.101,924.496C471.11,928.264 472.751,931.31 474.771,931.31L486.077,931.31C488.098,931.31 489.739,928.264 489.748,924.496C489.911,853.774 491.289,256.34 491.289,256.34Z" style="fill:url(#_Linear1);"/>
            <clipPath id="_clip2">
                <path d="M491.289,256.34L469.56,256.34C469.56,256.34 470.938,853.774 471.101,924.496C471.11,928.264 472.751,931.31 474.771,931.31L486.077,931.31C488.098,931.31 489.739,928.264 489.748,924.496C489.911,853.774 491.289,256.34 491.289,256.34Z"/>
            </clipPath>
            <g clip-path="url(#_clip2)">
                <g transform="matrix(0.456304,5.63218e-17,-1.6184e-17,1.61162,259.346,-63.9073)">
                    <rect x="460.688" y="234.509" width="47.621" height="6.757" style="fill-opacity:0.17;"/>
                </g>
                <g transform="matrix(0.257347,6.00865e-17,3.89218e-17,0.740734,379.944,170.811)">
                    <rect x="347.958" y="482.642" width="85.55" height="29.358" style="fill-opacity:0.17;"/>
                </g>
            </g>
        </g>
        <g transform="matrix(1.40112,1.40112,-1.10936,1.10936,399.144,-728.299)">
            <path d="M506.693,234.737L459.072,234.737L459.072,305.832C459.072,309.352 461.332,312.206 464.119,312.206L501.646,312.206C504.433,312.206 506.693,309.352 506.693,305.832L506.693,234.737Z" style="fill:url(#_Linear3);"/>
            <clipPath id="_clip4">
                <path d="M506.693,234.737L459.072,234.737L459.072,305.832C459.072,309.352 461.332,312.206 464.119,312.206L501.646,312.206C504.433,312.206 506.693,309.352 506.693,305.832L506.693,234.737Z"/>
            </clipPath>
            <g clip-path="url(#_clip4)">
                <g transform="matrix(1,-3.69779e-32,6.34042e-17,1.39383,-1.61618,-92.1293)">
                    <rect x="460.688" y="234.509" width="47.621" height="6.757" style="fill-opacity:0.07;"/>
                </g>
                <g transform="matrix(1,-2.67448e-17,3.3889e-17,0.977746,-1.61618,48.0906)">
                    <rect x="460.688" y="234.509" width="47.621" height="6.757" style="fill:white;fill-opacity:0.14;"/>
                </g>
                <g transform="matrix(1,-2.67448e-17,3.3889e-17,0.977746,-1.61618,33.6646)">
                    <rect x="460.688" y="234.509" width="47.621" height="6.757" style="fill:white;fill-opacity:0.14;"/>
                </g>
            </g>
        </g>
        <g transform="matrix(1.40112,1.40112,-1.40112,1.40112,417.656,-751.339)">
            <path d="M531.613,143.627C531.613,124.959 516.456,109.802 497.787,109.802L471.21,109.802C452.541,109.802 437.385,124.959 437.385,143.627L437.385,169.936L531.613,169.936L531.613,143.627Z" style="fill:url(#_Linear5);"/>
        </g>
        <g transform="matrix(1.54784,1.54784,0.634234,-0.634234,-28.8016,-400.161)">
            <path d="M512,227.343L426.704,227.343L439.498,185.476L499.206,185.476L512,227.343Z" style="fill:url(#_Linear6);"/>
            <clipPath id="_clip7">
                <path d="M512,227.343L426.704,227.343L439.498,185.476L499.206,185.476L512,227.343Z"/>
            </clipPath>
            <g clip-path="url(#_clip7)">
                <g transform="matrix(1.79116,3.15976e-16,-1.76228e-16,-2.43799,-398.463,799.073)">
                    <rect x="460.688" y="234.509" width="47.621" height="6.757" style="fill-opacity:0.07;"/>
                </g>
            </g>
        </g>
        <g transform="matrix(0.895216,0.895216,-0.895216,0.895216,538.112,-443.868)">
            <path d="M493.577,161.518L513.632,141.463L513.632,130.144L501.428,117.94L513.632,105.736L513.632,62.837L524.952,62.837L524.952,105.736L537.156,117.94L524.952,130.144L524.952,141.463L545.007,161.518L593.031,161.518L593.031,179.981L445.553,179.981L445.553,161.518L493.577,161.518Z" style="fill:url(#_Linear8);"/>
        </g>
    </g>
    <g transform="matrix(-1,0,0,1,1252.05,0)">
        <g transform="matrix(1.92654,1.92654,-1.03328,1.03328,124.041,-951.157)">
            <path d="M491.289,256.34L469.56,256.34C469.56,256.34 470.938,853.774 471.101,924.496C471.11,928.264 472.751,931.31 474.771,931.31L486.077,931.31C488.098,931.31 489.739,928.264 489.748,924.496C489.911,853.774 491.289,256.34 491.289,256.34Z" style="fill:url(#_Linear9);"/>
            <clipPath id="_clip10">
                <path d="M491.289,256.34L469.56,256.34C469.56,256.34 470.938,853.774 471.101,924.496C471.11,928.264 472.751,931.31 474.771,931.31L486.077,931.31C488.098,931.31 489.739,928.264 489.748,924.496C489.911,853.774 491.289,256.34 491.289,256.34Z"/>
            </clipPath>
            <g clip-path="url(#_clip10)">
                <g transform="matrix(0.456304,5.63218e-17,-1.6184e-17,1.61162,259.346,-63.9073)">
                    <rect x="460.688" y="234.509" width="47.621" height="6.757" style="fill-opacity:0.17;"/>
                </g>
            </g>
        </g>
        <g transform="matrix(1.40112,1.40112,-1.10936,1.10936,399.144,-728.299)">
            <path d="M506.693,234.737L459.072,234.737L459.072,305.832C459.072,309.352 461.332,312.206 464.119,312.206L501.646,312.206C504.433,312.206 506.693,309.352 506.693,305.832L506.693,234.737Z" style="fill:url(#_Linear11);"/>
            <clipPath id="_clip12">
                <path d="M506.693,234.737L459.072,234.737L459.072,305.832C459.072,309.352 461.332,312.206 464.119,312.206L501.646,312.206C504.433,312.206 506.693,309.352 506.693,305.832L506.693,234.737Z"/>
            </clipPath>
            <g clip-path="url(#_clip12)">
                <g transform="matrix(1,-3.69779e-32,6.34042e-17,1.39383,-1.61618,-92.1293)">
                    <rect x="460.688" y="234.509" width="47.621" height="6.757" style="fill-opacity:0.07;"/>
                </g>
                <g transform="matrix(1,-2.67448e-17,3.3889e-17,0.977746,-1.61618,48.0906)">
                    <rect x="460.688" y="234.509" width="47.621" height="6.757" style="fill:white;fill-opacity:0.14;"/>
                </g>
                <g transform="matrix(1,-2.67448e-17,3.3889e-17,0.977746,-1.61618,33.6646)">
                    <rect x="460.688" y="234.509" width="47.621" height="6.757" style="fill:white;fill-opacity:0.14;"/>
                </g>
            </g>
        </g>
        <g transform="matrix(1.40112,1.40112,-1.40112,1.40112,417.656,-751.339)">
            <path d="M531.613,143.627C531.613,124.959 516.456,109.802 497.787,109.802L471.21,109.802C452.541,109.802 437.385,124.959 437.385,143.627L437.385,169.936L531.613,169.936L531.613,143.627Z" style="fill:url(#_Linear13);"/>
        </g>
        <g transform="matrix(1.54784,1.54784,0.634234,-0.634234,-28.8016,-400.161)">
            <path d="M512,227.343L426.704,227.343L439.498,185.476L499.206,185.476L512,227.343Z" style="fill:url(#_Linear14);"/>
            <clipPath id="_clip15">
                <path d="M512,227.343L426.704,227.343L439.498,185.476L499.206,185.476L512,227.343Z"/>
            </clipPath>
            <g clip-path="url(#_clip15)">
                <g transform="matrix(1.79116,3.15976e-16,-1.76228e-16,-2.43799,-398.463,799.073)">
                    <rect x="460.688" y="234.509" width="47.621" height="6.757" style="fill-opacity:0.07;"/>
                </g>
            </g>
        </g>
        <g transform="matrix(0.895216,0.895216,-0.895216,0.895216,538.112,-443.868)">
            <path d="M493.577,161.518L513.632,141.463L513.632,130.144L501.428,117.94L513.632,105.736L513.632,62.837L524.952,62.837L524.952,105.736L537.156,117.94L524.952,130.144L524.952,141.463L545.007,161.518L593.031,161.518L593.031,179.981L445.553,179.981L445.553,161.518L493.577,161.518Z" style="fill:url(#_Linear16);"/>
        </g>
    </g>
    <g transform="matrix(1,0,0,1,0,95.4907)">
        <g>
            <g transform="matrix(1,0,0,1,9,137.418)">
                <g transform="matrix(220,0,0,220,108.83,487.27)">
                    <path d="M0.287,-0.152C0.235,-0.144 0.178,-0.14 0.126,-0.153C0.087,-0.162 0.047,-0.179 0.017,-0.207C-0.007,-0.229 -0.027,-0.259 -0.034,-0.292C-0.035,-0.298 -0.034,-0.303 -0.031,-0.308C-0.027,-0.313 -0.023,-0.316 -0.017,-0.317C-0.017,-0.317 0.074,-0.333 0.074,-0.333C0.081,-0.334 0.089,-0.335 0.095,-0.331C0.1,-0.328 0.105,-0.324 0.109,-0.32C0.116,-0.307 0.127,-0.296 0.139,-0.287C0.154,-0.276 0.173,-0.269 0.191,-0.265C0.216,-0.26 0.243,-0.262 0.269,-0.266C0.305,-0.272 0.346,-0.282 0.374,-0.307C0.394,-0.325 0.404,-0.35 0.4,-0.377C0.398,-0.394 0.389,-0.41 0.374,-0.42C0.355,-0.432 0.331,-0.438 0.309,-0.442C0.272,-0.449 0.234,-0.452 0.197,-0.454C0.151,-0.457 0.104,-0.463 0.06,-0.475C0.027,-0.485 -0.005,-0.5 -0.03,-0.525C-0.054,-0.55 -0.067,-0.584 -0.074,-0.618C-0.08,-0.654 -0.075,-0.692 -0.059,-0.725C-0.041,-0.761 -0.011,-0.79 0.023,-0.811C0.066,-0.839 0.116,-0.854 0.166,-0.862C0.206,-0.869 0.249,-0.871 0.29,-0.864C0.322,-0.859 0.355,-0.849 0.384,-0.832C0.407,-0.818 0.429,-0.801 0.446,-0.78C0.46,-0.762 0.471,-0.742 0.475,-0.72C0.475,-0.714 0.474,-0.709 0.471,-0.704C0.467,-0.699 0.462,-0.696 0.456,-0.696C0.456,-0.696 0.359,-0.681 0.359,-0.681C0.353,-0.68 0.347,-0.681 0.342,-0.682C0.335,-0.684 0.33,-0.689 0.326,-0.695C0.317,-0.717 0.298,-0.732 0.277,-0.741C0.248,-0.753 0.215,-0.753 0.184,-0.748C0.154,-0.743 0.121,-0.734 0.096,-0.713C0.076,-0.697 0.068,-0.672 0.073,-0.646C0.075,-0.63 0.084,-0.614 0.098,-0.604C0.115,-0.591 0.137,-0.585 0.158,-0.581C0.192,-0.574 0.228,-0.571 0.263,-0.568C0.313,-0.565 0.364,-0.56 0.413,-0.547C0.447,-0.538 0.481,-0.522 0.504,-0.496C0.527,-0.471 0.539,-0.436 0.544,-0.403C0.549,-0.364 0.544,-0.322 0.524,-0.287C0.503,-0.25 0.47,-0.221 0.434,-0.201C0.389,-0.175 0.338,-0.16 0.287,-0.152Z" style="fill:rgb(49,6,22);fill-rule:nonzero;"/>
                </g>
                <g transform="matrix(220,0,0,220,287.47,487.27)">
                    <path d="M0.323,-0.267C0.269,-0.261 0.211,-0.263 0.16,-0.281C0.116,-0.297 0.076,-0.324 0.048,-0.361C0.018,-0.402 -0,-0.452 -0.009,-0.501C-0.013,-0.53 -0.017,-0.559 -0.021,-0.588C-0.025,-0.618 -0.028,-0.648 -0.031,-0.677C-0.035,-0.727 -0.029,-0.78 -0.009,-0.826C0.011,-0.87 0.044,-0.907 0.084,-0.932C0.133,-0.962 0.191,-0.977 0.247,-0.983C0.29,-0.987 0.335,-0.987 0.378,-0.978C0.414,-0.97 0.449,-0.958 0.48,-0.938C0.507,-0.92 0.531,-0.897 0.549,-0.87C0.566,-0.844 0.577,-0.813 0.58,-0.782C0.581,-0.776 0.58,-0.771 0.575,-0.766C0.571,-0.762 0.566,-0.759 0.56,-0.759C0.56,-0.759 0.46,-0.75 0.46,-0.75C0.454,-0.749 0.447,-0.75 0.441,-0.753C0.435,-0.757 0.431,-0.764 0.429,-0.771C0.417,-0.804 0.396,-0.839 0.362,-0.855C0.33,-0.869 0.293,-0.872 0.258,-0.868C0.218,-0.864 0.177,-0.849 0.149,-0.818C0.119,-0.785 0.115,-0.734 0.119,-0.691C0.123,-0.635 0.129,-0.579 0.138,-0.524C0.145,-0.481 0.16,-0.433 0.196,-0.406C0.229,-0.383 0.271,-0.377 0.31,-0.381C0.344,-0.385 0.379,-0.395 0.407,-0.416C0.436,-0.437 0.449,-0.475 0.454,-0.51C0.455,-0.517 0.457,-0.525 0.462,-0.53C0.468,-0.534 0.474,-0.536 0.481,-0.537C0.481,-0.537 0.578,-0.546 0.578,-0.546C0.585,-0.546 0.59,-0.545 0.595,-0.541C0.6,-0.537 0.602,-0.533 0.602,-0.527C0.604,-0.495 0.599,-0.463 0.587,-0.434C0.575,-0.405 0.556,-0.378 0.534,-0.355C0.508,-0.331 0.477,-0.311 0.445,-0.297C0.406,-0.28 0.364,-0.271 0.323,-0.267Z" style="fill:rgb(49,6,22);fill-rule:nonzero;"/>
                </g>
                <g transform="matrix(220,0,0,220,475.35,487.27)">
                    <path d="M0.085,-0.33C0.078,-0.329 0.072,-0.331 0.067,-0.335C0.062,-0.34 0.059,-0.345 0.059,-0.352C0.044,-0.568 0.03,-0.785 0.015,-1.001C0.015,-1.008 0.017,-1.015 0.022,-1.02C0.026,-1.025 0.032,-1.028 0.039,-1.028C0.039,-1.028 0.507,-1.052 0.507,-1.052C0.515,-1.052 0.521,-1.05 0.527,-1.045C0.532,-1.041 0.535,-1.035 0.535,-1.028C0.535,-1.028 0.537,-0.962 0.537,-0.962C0.537,-0.955 0.535,-0.949 0.53,-0.945C0.525,-0.939 0.519,-0.937 0.512,-0.937C0.512,-0.937 0.164,-0.921 0.164,-0.921C0.164,-0.921 0.174,-0.744 0.174,-0.744C0.174,-0.744 0.495,-0.759 0.495,-0.759C0.502,-0.759 0.508,-0.758 0.514,-0.753C0.519,-0.749 0.522,-0.743 0.522,-0.736C0.522,-0.736 0.524,-0.674 0.524,-0.674C0.524,-0.667 0.522,-0.661 0.517,-0.656C0.512,-0.651 0.506,-0.649 0.499,-0.649C0.499,-0.649 0.181,-0.634 0.181,-0.634C0.181,-0.634 0.191,-0.451 0.191,-0.451C0.191,-0.451 0.537,-0.467 0.537,-0.467C0.544,-0.468 0.55,-0.466 0.555,-0.461C0.56,-0.456 0.563,-0.45 0.563,-0.443C0.563,-0.443 0.565,-0.377 0.565,-0.377C0.565,-0.371 0.563,-0.365 0.559,-0.36C0.554,-0.355 0.548,-0.353 0.541,-0.353C0.541,-0.353 0.085,-0.33 0.085,-0.33Z" style="fill:rgb(49,6,22);fill-rule:nonzero;"/>
                </g>
                <g transform="matrix(220,0,0,220,649.59,487.27)">
                    <path d="M0.099,-0.361C0.092,-0.361 0.086,-0.363 0.081,-0.368C0.076,-0.372 0.074,-0.378 0.074,-0.385C0.071,-0.601 0.068,-0.818 0.065,-1.035C0.065,-1.042 0.067,-1.049 0.072,-1.054C0.077,-1.058 0.083,-1.061 0.09,-1.061C0.09,-1.061 0.376,-1.062 0.376,-1.062C0.424,-1.061 0.475,-1.055 0.52,-1.036C0.557,-1.02 0.592,-0.994 0.614,-0.96C0.638,-0.924 0.646,-0.879 0.645,-0.836C0.644,-0.793 0.634,-0.748 0.609,-0.713C0.586,-0.681 0.551,-0.656 0.514,-0.642C0.47,-0.625 0.42,-0.619 0.373,-0.62C0.373,-0.62 0.219,-0.62 0.219,-0.62C0.219,-0.62 0.22,-0.386 0.22,-0.386C0.22,-0.379 0.218,-0.374 0.213,-0.369C0.208,-0.364 0.202,-0.362 0.195,-0.362C0.195,-0.362 0.099,-0.361 0.099,-0.361ZM0.216,-0.731C0.216,-0.731 0.368,-0.731 0.368,-0.731C0.4,-0.731 0.436,-0.736 0.462,-0.757C0.485,-0.777 0.495,-0.809 0.495,-0.839C0.495,-0.868 0.486,-0.898 0.465,-0.919C0.441,-0.944 0.403,-0.951 0.37,-0.951C0.37,-0.951 0.215,-0.951 0.215,-0.951C0.215,-0.951 0.216,-0.731 0.216,-0.731Z" style="fill:rgb(49,6,22);fill-rule:nonzero;"/>
                </g>
                <g transform="matrix(220,0,0,220,831.97,487.27)">
                    <path d="M0.27,-0.34C0.263,-0.341 0.258,-0.343 0.253,-0.348C0.249,-0.353 0.247,-0.359 0.247,-0.365C0.257,-0.55 0.266,-0.734 0.276,-0.918C0.276,-0.918 0.08,-0.927 0.08,-0.927C0.073,-0.927 0.067,-0.929 0.063,-0.934C0.058,-0.939 0.056,-0.945 0.056,-0.952C0.056,-0.952 0.059,-1.026 0.059,-1.026C0.059,-1.033 0.061,-1.039 0.067,-1.043C0.072,-1.048 0.078,-1.05 0.085,-1.05C0.266,-1.042 0.447,-1.032 0.628,-1.019C0.635,-1.018 0.641,-1.016 0.646,-1.01C0.651,-1.005 0.653,-0.999 0.652,-0.992C0.652,-0.992 0.647,-0.918 0.647,-0.918C0.646,-0.911 0.643,-0.906 0.638,-0.902C0.632,-0.897 0.626,-0.896 0.619,-0.896C0.619,-0.896 0.424,-0.909 0.424,-0.909C0.413,-0.725 0.402,-0.541 0.391,-0.357C0.39,-0.351 0.387,-0.345 0.382,-0.341C0.377,-0.336 0.371,-0.334 0.364,-0.335C0.364,-0.335 0.27,-0.34 0.27,-0.34Z" style="fill:rgb(49,6,22);fill-rule:nonzero;"/>
                </g>
                <g transform="matrix(220,0,0,220,1002.47,487.27)">
                    <path d="M0.126,-0.293C0.119,-0.294 0.114,-0.297 0.109,-0.302C0.105,-0.307 0.103,-0.313 0.104,-0.319C0.124,-0.535 0.144,-0.751 0.165,-0.968C0.165,-0.975 0.168,-0.98 0.174,-0.985C0.179,-0.989 0.186,-0.991 0.192,-0.99C0.192,-0.99 0.467,-0.961 0.467,-0.961C0.537,-0.953 0.611,-0.932 0.662,-0.882C0.709,-0.837 0.723,-0.773 0.715,-0.711C0.709,-0.668 0.692,-0.624 0.661,-0.593C0.632,-0.564 0.592,-0.544 0.552,-0.536C0.552,-0.536 0.669,-0.264 0.669,-0.264C0.67,-0.26 0.671,-0.256 0.671,-0.252C0.67,-0.247 0.667,-0.242 0.662,-0.238C0.657,-0.235 0.652,-0.234 0.647,-0.234C0.647,-0.234 0.555,-0.246 0.555,-0.246C0.545,-0.247 0.536,-0.251 0.529,-0.258C0.525,-0.264 0.52,-0.271 0.517,-0.278C0.517,-0.278 0.413,-0.529 0.413,-0.529C0.413,-0.529 0.27,-0.544 0.27,-0.544C0.27,-0.544 0.245,-0.305 0.245,-0.305C0.244,-0.299 0.242,-0.294 0.237,-0.289C0.231,-0.285 0.225,-0.283 0.218,-0.284C0.218,-0.284 0.126,-0.293 0.126,-0.293ZM0.281,-0.657C0.281,-0.657 0.428,-0.641 0.428,-0.641C0.46,-0.637 0.498,-0.638 0.525,-0.657C0.55,-0.674 0.562,-0.702 0.566,-0.73C0.569,-0.759 0.564,-0.79 0.544,-0.812C0.522,-0.838 0.484,-0.848 0.451,-0.851C0.451,-0.851 0.303,-0.867 0.303,-0.867C0.303,-0.867 0.281,-0.657 0.281,-0.657Z" style="fill:rgb(49,6,22);fill-rule:nonzero;"/>
                </g>
                <g transform="matrix(220,0,0,220,1187.93,487.27)">
                    <path d="M0.136,-0.187C0.129,-0.188 0.124,-0.191 0.12,-0.197C0.116,-0.202 0.114,-0.208 0.115,-0.215C0.148,-0.429 0.18,-0.644 0.213,-0.858C0.214,-0.865 0.217,-0.871 0.223,-0.875C0.229,-0.879 0.235,-0.88 0.242,-0.879C0.242,-0.879 0.705,-0.801 0.705,-0.801C0.713,-0.8 0.719,-0.797 0.723,-0.791C0.727,-0.785 0.728,-0.779 0.727,-0.772C0.727,-0.772 0.715,-0.707 0.715,-0.707C0.714,-0.7 0.71,-0.695 0.705,-0.692C0.699,-0.688 0.692,-0.687 0.685,-0.688C0.685,-0.688 0.341,-0.747 0.341,-0.747C0.341,-0.747 0.313,-0.573 0.313,-0.573C0.313,-0.573 0.63,-0.518 0.63,-0.518C0.637,-0.517 0.643,-0.514 0.648,-0.509C0.652,-0.503 0.653,-0.497 0.652,-0.49C0.652,-0.49 0.64,-0.429 0.64,-0.429C0.639,-0.422 0.636,-0.417 0.63,-0.413C0.624,-0.409 0.617,-0.409 0.61,-0.41C0.61,-0.41 0.295,-0.464 0.295,-0.464C0.295,-0.464 0.266,-0.283 0.266,-0.283C0.266,-0.283 0.608,-0.224 0.608,-0.224C0.615,-0.223 0.621,-0.22 0.625,-0.214C0.629,-0.209 0.63,-0.202 0.629,-0.195C0.629,-0.195 0.617,-0.13 0.617,-0.13C0.616,-0.124 0.612,-0.119 0.607,-0.115C0.601,-0.111 0.594,-0.11 0.587,-0.111C0.587,-0.111 0.136,-0.187 0.136,-0.187Z" style="fill:rgb(49,6,22);fill-rule:nonzero;"/>
                </g>
            </g>
            <g transform="matrix(1,0,0,1,0,128.418)">
                <g transform="matrix(220,0,0,220,108.83,487.27)">
                    <path d="M0.28,-0.145C0.228,-0.136 0.171,-0.133 0.119,-0.145C0.079,-0.154 0.04,-0.171 0.01,-0.198C-0.015,-0.221 -0.035,-0.251 -0.043,-0.284C-0.044,-0.29 -0.043,-0.295 -0.039,-0.3C-0.036,-0.305 -0.031,-0.307 -0.025,-0.309C-0.025,-0.309 0.066,-0.325 0.066,-0.325C0.073,-0.326 0.081,-0.327 0.087,-0.323C0.092,-0.32 0.097,-0.316 0.101,-0.312C0.108,-0.299 0.119,-0.288 0.131,-0.279C0.146,-0.268 0.165,-0.261 0.184,-0.257C0.209,-0.252 0.236,-0.254 0.261,-0.258C0.297,-0.264 0.339,-0.274 0.367,-0.3C0.387,-0.318 0.397,-0.343 0.393,-0.37C0.39,-0.387 0.382,-0.403 0.366,-0.413C0.347,-0.425 0.323,-0.431 0.301,-0.435C0.264,-0.441 0.226,-0.444 0.189,-0.447C0.143,-0.45 0.096,-0.455 0.052,-0.467C0.019,-0.476 -0.014,-0.492 -0.038,-0.517C-0.063,-0.541 -0.076,-0.575 -0.083,-0.609C-0.089,-0.645 -0.085,-0.683 -0.068,-0.716C-0.05,-0.752 -0.02,-0.782 0.014,-0.803C0.056,-0.831 0.107,-0.846 0.157,-0.854C0.197,-0.861 0.24,-0.863 0.281,-0.857C0.314,-0.852 0.347,-0.842 0.376,-0.825C0.399,-0.811 0.421,-0.794 0.438,-0.773C0.452,-0.755 0.463,-0.735 0.467,-0.713C0.468,-0.707 0.466,-0.702 0.463,-0.698C0.46,-0.692 0.454,-0.69 0.448,-0.689C0.448,-0.689 0.351,-0.674 0.351,-0.674C0.345,-0.673 0.339,-0.674 0.333,-0.675C0.327,-0.677 0.321,-0.682 0.317,-0.688C0.309,-0.71 0.289,-0.725 0.268,-0.734C0.239,-0.746 0.206,-0.746 0.176,-0.741C0.145,-0.736 0.112,-0.726 0.088,-0.706C0.068,-0.689 0.059,-0.664 0.064,-0.638C0.067,-0.621 0.075,-0.606 0.089,-0.596C0.106,-0.583 0.129,-0.577 0.15,-0.573C0.184,-0.567 0.22,-0.563 0.255,-0.56C0.305,-0.558 0.357,-0.553 0.406,-0.54C0.439,-0.531 0.473,-0.515 0.497,-0.489C0.52,-0.464 0.532,-0.43 0.537,-0.397C0.543,-0.357 0.537,-0.315 0.517,-0.28C0.496,-0.244 0.463,-0.215 0.427,-0.194C0.382,-0.168 0.331,-0.153 0.28,-0.145Z" style="fill:url(#_Linear17);fill-rule:nonzero;"/>
                </g>
                <g transform="matrix(220,0,0,220,287.47,487.27)">
                    <path d="M0.318,-0.262C0.264,-0.256 0.206,-0.258 0.154,-0.276C0.111,-0.291 0.07,-0.319 0.042,-0.356C0.012,-0.396 -0.006,-0.446 -0.015,-0.495C-0.02,-0.524 -0.024,-0.553 -0.027,-0.582C-0.031,-0.612 -0.035,-0.642 -0.038,-0.672C-0.042,-0.722 -0.036,-0.775 -0.016,-0.821C0.003,-0.864 0.037,-0.901 0.077,-0.926C0.125,-0.957 0.184,-0.972 0.24,-0.978C0.283,-0.982 0.328,-0.982 0.371,-0.973C0.407,-0.966 0.443,-0.953 0.474,-0.934C0.501,-0.916 0.525,-0.893 0.543,-0.866C0.56,-0.84 0.571,-0.809 0.574,-0.778C0.576,-0.772 0.574,-0.767 0.57,-0.762C0.566,-0.758 0.56,-0.755 0.554,-0.755C0.554,-0.755 0.455,-0.745 0.455,-0.745C0.448,-0.745 0.441,-0.746 0.435,-0.749C0.429,-0.753 0.425,-0.76 0.423,-0.767C0.411,-0.8 0.39,-0.835 0.356,-0.85C0.324,-0.865 0.286,-0.867 0.251,-0.863C0.211,-0.859 0.17,-0.844 0.143,-0.813C0.112,-0.779 0.108,-0.729 0.112,-0.685C0.116,-0.63 0.123,-0.574 0.132,-0.518C0.139,-0.476 0.154,-0.427 0.191,-0.401C0.223,-0.378 0.265,-0.372 0.304,-0.376C0.339,-0.38 0.374,-0.39 0.402,-0.411C0.431,-0.433 0.444,-0.471 0.449,-0.506C0.45,-0.513 0.452,-0.521 0.457,-0.526C0.462,-0.53 0.469,-0.532 0.475,-0.533C0.475,-0.533 0.574,-0.542 0.574,-0.542C0.58,-0.542 0.585,-0.541 0.59,-0.537C0.595,-0.534 0.597,-0.529 0.597,-0.523C0.599,-0.491 0.594,-0.459 0.583,-0.43C0.571,-0.401 0.552,-0.374 0.529,-0.351C0.504,-0.326 0.472,-0.307 0.44,-0.293C0.402,-0.276 0.36,-0.266 0.318,-0.262Z" style="fill:url(#_Linear18);fill-rule:nonzero;"/>
                </g>
                <g transform="matrix(220,0,0,220,475.35,487.27)">
                    <path d="M0.082,-0.327C0.075,-0.326 0.069,-0.328 0.064,-0.332C0.059,-0.337 0.056,-0.342 0.055,-0.349C0.04,-0.565 0.025,-0.782 0.01,-0.998C0.01,-1.005 0.012,-1.012 0.016,-1.017C0.021,-1.022 0.027,-1.025 0.034,-1.025C0.034,-1.025 0.503,-1.05 0.503,-1.05C0.51,-1.05 0.517,-1.049 0.523,-1.044C0.528,-1.039 0.531,-1.033 0.531,-1.026C0.531,-1.026 0.533,-0.96 0.533,-0.96C0.533,-0.953 0.531,-0.948 0.526,-0.943C0.521,-0.938 0.515,-0.935 0.508,-0.935C0.508,-0.935 0.159,-0.918 0.159,-0.918C0.159,-0.918 0.17,-0.741 0.17,-0.741C0.17,-0.741 0.491,-0.757 0.491,-0.757C0.498,-0.758 0.505,-0.756 0.511,-0.752C0.516,-0.747 0.518,-0.741 0.519,-0.734C0.519,-0.734 0.521,-0.673 0.521,-0.673C0.521,-0.666 0.519,-0.66 0.514,-0.655C0.509,-0.65 0.503,-0.648 0.496,-0.648C0.496,-0.648 0.177,-0.631 0.177,-0.631C0.177,-0.631 0.188,-0.449 0.188,-0.449C0.188,-0.449 0.534,-0.466 0.534,-0.466C0.541,-0.466 0.547,-0.464 0.553,-0.46C0.558,-0.455 0.56,-0.449 0.561,-0.442C0.561,-0.442 0.563,-0.376 0.563,-0.376C0.563,-0.369 0.561,-0.363 0.556,-0.359C0.552,-0.353 0.545,-0.351 0.538,-0.351C0.538,-0.351 0.082,-0.327 0.082,-0.327Z" style="fill:url(#_Linear19);fill-rule:nonzero;"/>
                </g>
                <g transform="matrix(220,0,0,220,649.59,487.27)">
                    <path d="M0.097,-0.36C0.091,-0.36 0.085,-0.362 0.08,-0.367C0.075,-0.372 0.073,-0.377 0.072,-0.384C0.069,-0.601 0.065,-0.818 0.062,-1.035C0.062,-1.042 0.064,-1.048 0.069,-1.053C0.074,-1.058 0.08,-1.06 0.087,-1.06C0.087,-1.06 0.373,-1.062 0.373,-1.062C0.422,-1.062 0.472,-1.055 0.518,-1.036C0.555,-1.021 0.59,-0.995 0.612,-0.961C0.636,-0.925 0.645,-0.879 0.644,-0.837C0.643,-0.794 0.633,-0.749 0.608,-0.714C0.585,-0.681 0.55,-0.657 0.513,-0.643C0.468,-0.626 0.419,-0.62 0.372,-0.62C0.372,-0.62 0.217,-0.62 0.217,-0.62C0.217,-0.62 0.219,-0.386 0.219,-0.386C0.219,-0.379 0.217,-0.373 0.212,-0.369C0.207,-0.363 0.201,-0.361 0.194,-0.361C0.194,-0.361 0.097,-0.36 0.097,-0.36ZM0.214,-0.731C0.214,-0.731 0.367,-0.731 0.367,-0.731C0.399,-0.731 0.435,-0.737 0.46,-0.758C0.484,-0.778 0.493,-0.809 0.493,-0.839C0.494,-0.868 0.485,-0.899 0.464,-0.92C0.439,-0.944 0.4,-0.951 0.367,-0.951C0.367,-0.951 0.213,-0.951 0.213,-0.951C0.213,-0.951 0.214,-0.731 0.214,-0.731Z" style="fill:url(#_Linear20);fill-rule:nonzero;"/>
                </g>
                <g transform="matrix(220,0,0,220,831.97,487.27)">
                    <path d="M0.271,-0.342C0.265,-0.343 0.259,-0.345 0.254,-0.35C0.25,-0.355 0.248,-0.361 0.248,-0.367C0.257,-0.552 0.266,-0.736 0.275,-0.92C0.275,-0.92 0.08,-0.928 0.08,-0.928C0.073,-0.928 0.067,-0.931 0.062,-0.936C0.057,-0.941 0.055,-0.946 0.055,-0.953C0.055,-0.953 0.058,-1.027 0.058,-1.027C0.058,-1.034 0.06,-1.04 0.066,-1.045C0.071,-1.049 0.077,-1.051 0.084,-1.051C0.266,-1.044 0.447,-1.035 0.628,-1.022C0.635,-1.021 0.642,-1.019 0.647,-1.013C0.651,-1.008 0.653,-1.002 0.653,-0.995C0.653,-0.995 0.647,-0.921 0.647,-0.921C0.647,-0.914 0.644,-0.909 0.639,-0.905C0.633,-0.9 0.626,-0.899 0.619,-0.899C0.619,-0.899 0.425,-0.912 0.425,-0.912C0.414,-0.728 0.403,-0.544 0.392,-0.36C0.392,-0.353 0.389,-0.348 0.384,-0.343C0.379,-0.338 0.372,-0.337 0.365,-0.337C0.365,-0.337 0.271,-0.342 0.271,-0.342Z" style="fill:url(#_Linear21);fill-rule:nonzero;"/>
                </g>
                <g transform="matrix(220,0,0,220,1002.47,487.27)">
                    <path d="M0.129,-0.297C0.122,-0.298 0.117,-0.3 0.112,-0.305C0.108,-0.311 0.106,-0.316 0.107,-0.323C0.127,-0.539 0.146,-0.755 0.166,-0.971C0.167,-0.978 0.169,-0.984 0.175,-0.989C0.18,-0.993 0.187,-0.995 0.194,-0.994C0.194,-0.994 0.469,-0.966 0.469,-0.966C0.539,-0.958 0.613,-0.937 0.665,-0.887C0.712,-0.842 0.727,-0.778 0.718,-0.716C0.713,-0.673 0.696,-0.629 0.665,-0.599C0.635,-0.569 0.596,-0.549 0.555,-0.54C0.555,-0.54 0.674,-0.269 0.674,-0.269C0.675,-0.265 0.676,-0.261 0.675,-0.258C0.675,-0.252 0.672,-0.247 0.667,-0.243C0.662,-0.24 0.657,-0.239 0.651,-0.239C0.651,-0.239 0.559,-0.251 0.559,-0.251C0.55,-0.252 0.54,-0.255 0.534,-0.263C0.529,-0.269 0.525,-0.276 0.522,-0.283C0.522,-0.283 0.416,-0.533 0.416,-0.533C0.416,-0.533 0.272,-0.548 0.272,-0.548C0.272,-0.548 0.248,-0.309 0.248,-0.309C0.248,-0.303 0.245,-0.298 0.24,-0.293C0.235,-0.289 0.228,-0.287 0.222,-0.288C0.222,-0.288 0.129,-0.297 0.129,-0.297ZM0.284,-0.661C0.284,-0.661 0.431,-0.645 0.431,-0.645C0.463,-0.642 0.501,-0.643 0.529,-0.662C0.553,-0.678 0.566,-0.707 0.569,-0.735C0.572,-0.764 0.566,-0.795 0.547,-0.817C0.524,-0.843 0.487,-0.852 0.454,-0.856C0.454,-0.856 0.305,-0.872 0.305,-0.872C0.305,-0.872 0.284,-0.661 0.284,-0.661Z" style="fill:url(#_Linear22);fill-rule:nonzero;"/>
                </g>
                <g transform="matrix(220,0,0,220,1187.93,487.27)">
                    <path d="M0.142,-0.193C0.135,-0.194 0.13,-0.197 0.126,-0.203C0.122,-0.208 0.12,-0.214 0.121,-0.221C0.153,-0.435 0.185,-0.65 0.217,-0.864C0.218,-0.871 0.221,-0.877 0.227,-0.881C0.232,-0.885 0.239,-0.886 0.246,-0.885C0.246,-0.885 0.711,-0.809 0.711,-0.809C0.718,-0.807 0.724,-0.804 0.728,-0.798C0.733,-0.793 0.734,-0.786 0.732,-0.779C0.732,-0.779 0.721,-0.714 0.721,-0.714C0.719,-0.708 0.716,-0.703 0.71,-0.699C0.704,-0.695 0.697,-0.694 0.69,-0.695C0.69,-0.695 0.345,-0.754 0.345,-0.754C0.345,-0.754 0.318,-0.579 0.318,-0.579C0.318,-0.579 0.636,-0.525 0.636,-0.525C0.643,-0.524 0.649,-0.521 0.653,-0.516C0.658,-0.51 0.659,-0.504 0.658,-0.497C0.658,-0.497 0.647,-0.436 0.647,-0.436C0.645,-0.429 0.642,-0.424 0.636,-0.42C0.63,-0.416 0.623,-0.416 0.617,-0.417C0.617,-0.417 0.3,-0.47 0.3,-0.47C0.3,-0.47 0.272,-0.289 0.272,-0.289C0.272,-0.289 0.615,-0.231 0.615,-0.231C0.622,-0.23 0.628,-0.227 0.632,-0.221C0.636,-0.215 0.637,-0.209 0.636,-0.202C0.636,-0.202 0.624,-0.137 0.624,-0.137C0.623,-0.131 0.619,-0.126 0.614,-0.122C0.608,-0.118 0.601,-0.117 0.594,-0.118C0.594,-0.118 0.142,-0.193 0.142,-0.193Z" style="fill:url(#_Linear23);fill-rule:nonzero;"/>
                </g>
            </g>
        </g>
    </g>
    <defs>
        <linearGradient id="_Linear1" x1="0" y1="0" x2="1" y2="0" gradientUnits="userSpaceOnUse" gradientTransform="matrix(21.7294,0,0,674.971,469.56,593.825)"><stop offset="0" style="stop-color:rgb(94,77,96);stop-opacity:1"/><stop offset="1" style="stop-color:rgb(65,59,75);stop-opacity:1"/></linearGradient>
        <linearGradient id="_Linear3" x1="0" y1="0" x2="1" y2="0" gradientUnits="userSpaceOnUse" gradientTransform="matrix(47.6206,0,0,77.4689,459.072,273.471)"><stop offset="0" style="stop-color:rgb(251,181,71);stop-opacity:1"/><stop offset="1" style="stop-color:rgb(252,166,85);stop-opacity:1"/></linearGradient>
        <linearGradient id="_Linear5" x1="0" y1="0" x2="1" y2="0" gradientUnits="userSpaceOnUse" gradientTransform="matrix(94.2278,0,0,60.1336,437.385,139.869)"><stop offset="0" style="stop-color:rgb(245,104,114);stop-opacity:1"/><stop offset="1" style="stop-color:rgb(237,76,42);stop-opacity:1"/></linearGradient>
        <linearGradient id="_Linear6" x1="0" y1="0" x2="1" y2="0" gradientUnits="userSpaceOnUse" gradientTransform="matrix(85.2961,0,0,41.8674,426.704,206.41)"><stop offset="0" style="stop-color:rgb(251,181,71);stop-opacity:1"/><stop offset="1" style="stop-color:rgb(252,166,85);stop-opacity:1"/></linearGradient>
        <linearGradient id="_Linear8" x1="0" y1="0" x2="1" y2="0" gradientUnits="userSpaceOnUse" gradientTransform="matrix(147.478,0,0,117.144,445.553,121.409)"><stop offset="0" style="stop-color:rgb(251,181,71);stop-opacity:1"/><stop offset="1" style="stop-color:rgb(252,166,85);stop-opacity:1"/></linearGradient>
        <linearGradient id="_Linear9" x1="0" y1="0" x2="1" y2="0" gradientUnits="userSpaceOnUse" gradientTransform="matrix(21.7294,0,0,674.971,469.56,593.825)"><stop offset="0" style="stop-color:rgb(65,59,75);stop-opacity:1"/><stop offset="1" style="stop-color:rgb(94,77,96);stop-opacity:1"/></linearGradient>
        <linearGradient id="_Linear11" x1="0" y1="0" x2="1" y2="0" gradientUnits="userSpaceOnUse" gradientTransform="matrix(47.6206,0,0,77.4689,459.072,273.471)"><stop offset="0" style="stop-color:rgb(251,181,71);stop-opacity:1"/><stop offset="1" style="stop-color:rgb(252,166,85);stop-opacity:1"/></linearGradient>
        <linearGradient id="_Linear13" x1="0" y1="0" x2="1" y2="0" gradientUnits="userSpaceOnUse" gradientTransform="matrix(94.2278,0,0,60.1336,437.385,139.869)"><stop offset="0" style="stop-color:rgb(231,119,235);stop-opacity:1"/><stop offset="1" style="stop-color:rgb(149,84,241);stop-opacity:1"/></linearGradient>
        <linearGradient id="_Linear14" x1="0" y1="0" x2="1" y2="0" gradientUnits="userSpaceOnUse" gradientTransform="matrix(85.2961,0,0,41.8674,426.704,206.41)"><stop offset="0" style="stop-color:rgb(251,181,71);stop-opacity:1"/><stop offset="1" style="stop-color:rgb(252,166,85);stop-opacity:1"/></linearGradient>
        <linearGradient id="_Linear16" x1="0" y1="0" x2="1" y2="0" gradientUnits="userSpaceOnUse" gradientTransform="matrix(147.478,0,0,117.144,445.553,121.409)"><stop offset="0" style="stop-color:rgb(251,181,71);stop-opacity:1"/><stop offset="1" style="stop-color:rgb(252,166,85);stop-opacity:1"/></linearGradient>
        <linearGradient id="_Linear17" x1="0" y1="0" x2="1" y2="0" gradientUnits="userSpaceOnUse" gradientTransform="matrix(7.07633e-17,-1.15565,0.251497,1.53998e-17,2.66298,-0.245739)"><stop offset="0" style="stop-color:rgb(243,111,157);stop-opacity:1"/><stop offset="1" style="stop-color:rgb(255,190,73);stop-opacity:1"/></linearGradient>
        <linearGradient id="_Linear18" x1="0" y1="0" x2="1" y2="0" gradientUnits="userSpaceOnUse" gradientTransform="matrix(7.07633e-17,-1.15565,0.251497,1.53998e-17,1.85098,-0.245739)"><stop offset="0" style="stop-color:rgb(243,111,157);stop-opacity:1"/><stop offset="1" style="stop-color:rgb(255,190,73);stop-opacity:1"/></linearGradient>
        <linearGradient id="_Linear19" x1="0" y1="0" x2="1" y2="0" gradientUnits="userSpaceOnUse" gradientTransform="matrix(7.07633e-17,-1.15565,0.251497,1.53998e-17,0.99698,-0.245739)"><stop offset="0" style="stop-color:rgb(243,111,157);stop-opacity:1"/><stop offset="1" style="stop-color:rgb(255,190,73);stop-opacity:1"/></linearGradient>
        <linearGradient id="_Linear20" x1="0" y1="0" x2="1" y2="0" gradientUnits="userSpaceOnUse" gradientTransform="matrix(7.07633e-17,-1.15565,0.251497,1.53998e-17,0.20498,-0.245739)"><stop offset="0" style="stop-color:rgb(243,111,157);stop-opacity:1"/><stop offset="1" style="stop-color:rgb(255,190,73);stop-opacity:1"/></linearGradient>
        <linearGradient id="_Linear21" x1="0" y1="0" x2="1" y2="0" gradientUnits="userSpaceOnUse" gradientTransform="matrix(7.07633e-17,-1.15565,0.251497,1.53998e-17,-0.62402,-0.245739)"><stop offset="0" style="stop-color:rgb(243,111,157);stop-opacity:1"/><stop offset="1" style="stop-color:rgb(255,190,73);stop-opacity:1"/></linearGradient>
        <linearGradient id="_Linear22" x1="0" y1="0" x2="1" y2="0" gradientUnits="userSpaceOnUse" gradientTransform="matrix(7.07633e-17,-1.15565,0.251497,1.53998e-17,-1.39902,-0.245739)"><stop offset="0" style="stop-color:rgb(243,111,157);stop-opacity:1"/><stop offset="1" style="stop-color:rgb(255,190,73);stop-opacity:1"/></linearGradient>
        <linearGradient id="_Linear23" x1="0" y1="0" x2="1" y2="0" gradientUnits="userSpaceOnUse" gradientTransform="matrix(7.07633e-17,-1.15565,0.251497,1.53998e-17,-2.24202,-0.245739)"><stop offset="0" style="stop-color:rgb(243,111,157);stop-opacity:1"/><stop offset="1" style="stop-color:rgb(255,190,73);stop-opacity:1"/></linearGradient>
    </defs>
</svg>
